<svg width="24" height="24" viewBox="0 0 24 24" fill="none" xmlns="http://www.w3.org/2000/svg">
<path d="M2.39999 5.99998C2.39999 4.67449 3.47451 3.59998 4.79999 3.59998H13.2C14.5255 3.59998 15.6 4.67449 15.6 5.99998V10.8C15.6 12.1255 14.5255 13.2 13.2 13.2H10.8L7.19999 16.8V13.2H4.79999C3.47451 13.2 2.39999 12.1255 2.39999 10.8V5.99998Z" fill="#535BF2"/>
<path d="M18 8.39998V11.6C18 13.8091 16.2091 15.6 14 15.6H11.7941L9.67406 17.72C10.0098 17.8987 10.3931 18 10.8 18H13.2L16.8 21.6V18H19.2C20.5255 18 21.6 16.9255 21.6 15.6V10.8C21.6 9.47449 20.5255 8.39998 19.2 8.39998H18Z" fill="#535BF2"/>
</svg>
