<svg width="22" height="22" viewBox="0 0 22 22" fill="none" xmlns="http://www.w3.org/2000/svg">
<path d="M21.1719 0.830514C21.0185 0.677178 20.8241 0.571441 20.612 0.526033C20.3999 0.480626 20.1793 0.497483 19.9765 0.574577L1.22514 7.67192H1.22139C1.00519 7.75508 0.819922 7.90295 0.6909 8.09534C0.561879 8.28772 0.495392 8.51525 0.50052 8.74684C0.505648 8.97843 0.582142 9.20279 0.719553 9.38928C0.856964 9.57577 1.04859 9.71529 1.26827 9.7888L1.28749 9.79489L7.72342 12.5432C7.84895 12.5813 7.98229 12.5858 8.11011 12.5563C8.23793 12.5267 8.35577 12.4642 8.45186 12.3749L18.7812 2.75005C18.812 2.71927 18.8486 2.69485 18.8888 2.67819C18.929 2.66154 18.9721 2.65296 19.0156 2.65296C19.0591 2.65296 19.1022 2.66154 19.1425 2.67819C19.1827 2.69485 19.2192 2.71927 19.25 2.75005C19.2808 2.78082 19.3052 2.81736 19.3218 2.85758C19.3385 2.89779 19.3471 2.94089 19.3471 2.98442C19.3471 3.02795 19.3385 3.07105 19.3218 3.11126C19.3052 3.15148 19.2808 3.18802 19.25 3.2188L9.62467 13.5435C9.53537 13.6396 9.47283 13.7574 9.4433 13.8852C9.41377 14.0131 9.41829 14.1464 9.45639 14.2719L12.2056 20.7116C12.2084 20.721 12.2112 20.7294 12.2145 20.7383C12.3645 21.1729 12.7442 21.4794 13.2031 21.5C13.2233 21.5 13.2303 21.5 13.25 21.5C13.4817 21.5014 13.7084 21.433 13.9006 21.3037C14.0929 21.1745 14.2419 20.9904 14.3281 20.7754L21.4245 2.02911C21.5027 1.82627 21.5205 1.60512 21.4756 1.39241C21.4308 1.1797 21.3253 0.98453 21.1719 0.830514V0.830514Z" fill="white"/>
</svg>
